<?xml version="1.0" encoding="UTF-8"?>
<svg version="1.1" xmlns="http://www.w3.org/2000/svg" width="350" height="285">
<path d="M0 0 C115.5 0 231 0 350 0 C350 94.05 350 188.1 350 285 C234.5 285 119 285 0 285 C0 190.95 0 96.9 0 0 Z " fill="#FBFAFA" transform="translate(0,0)"/>
<path d="M0 0 C0.99 0.66 1.98 1.32 3 2 C3.1875 4.625 3.1875 4.625 3 7 C3.76699219 7.06058594 4.53398437 7.12117188 5.32421875 7.18359375 C8 8 8 8 9.58203125 10.16015625 C14.10085267 20.81883661 14.68776689 30.93669932 11 42 C34.1 42 57.2 42 81 42 C81 76.32 81 110.64 81 146 C-10.08 146 -101.16 146 -195 146 C-195 111.68 -195 77.36 -195 42 C-148.8 42 -102.6 42 -55 42 C-55.99 37.545 -55.99 37.545 -57 33 C-57.93029022 23.92664991 -56.64090496 15.36228359 -51.3125 7.8125 C-37.99719436 -8.50948756 -17.49795345 -12.61480365 0 0 Z " fill="#E57E69" transform="translate(235,22)"/>
<path d="M0 0 C90.75 0 181.5 0 275 0 C275 17.82 275 35.64 275 54 C184.25 54 93.5 54 0 54 C0 36.18 0 18.36 0 0 Z " fill="#E37F6B" transform="translate(41,173)"/>
<path d="M0 0 C0.99 0.66 1.98 1.32 3 2 C3.1875 4.625 3.1875 4.625 3 7 C4.15048828 7.09087891 4.15048828 7.09087891 5.32421875 7.18359375 C8 8 8 8 9.58203125 10.16015625 C13.63413388 19.71797294 15.38962061 29.90172662 11.73828125 39.8515625 C7.68037252 49.29261472 1.54735782 56.06681518 -7.75 60.4375 C-17.4206265 64.2158687 -27.4254234 64.16933351 -37 60 C-46.17446645 55.04826399 -52.53710541 47.98031754 -55.9375 38.0625 C-58.35052131 28.48535332 -57.77411968 18.49007496 -52.74609375 9.84375 C-47.63174296 2.59725841 -40.58692618 -4.35326846 -31.78125 -6.5546875 C-19.68969943 -8.49069419 -10.00685578 -7.21424487 0 0 Z " fill="#2C4074" transform="translate(235,22)"/>
<path d="M0 0 C2 2 2 2 2.125 4.625 C2.08375 5.40875 2.0425 6.1925 2 7 C3.32 7.33 4.64 7.66 6 8 C5.855625 8.61746094 5.71125 9.23492187 5.5625 9.87109375 C4.2802401 15.72140455 3.80691904 21.01449037 4 27 C5.65420222 26.46260944 7.29833295 25.89413992 8.9375 25.3125 C9.85402344 24.99925781 10.77054688 24.68601562 11.71484375 24.36328125 C14.26532213 23.18742244 14.26532213 23.18742244 14.81640625 20.35546875 C14.90728516 19.18951172 14.90728516 19.18951172 15 18 C16.98 18 18.96 18 21 18 C21.33 18.99 21.66 19.98 22 21 C22.99 21 23.98 21 25 21 C25.99 24.63 26.98 28.26 28 32 C28.66 31.67 29.32 31.34 30 31 C30.28875 30.0925 30.5775 29.185 30.875 28.25 C32.06780744 24.80411183 33.60528801 22.71400692 36 20 C37.32 20.33 38.64 20.66 40 21 C40.495 23.475 40.495 23.475 41 26 C41.99 25.67 42.98 25.34 44 25 C44.99 28.96 45.98 32.92 47 37 C45.68 36.34 44.36 35.68 43 35 C45.37629089 39.14670039 45.37629089 39.14670039 49 42 C48.41825155 36.6913151 48.41825155 36.6913151 46 32 C46 31.01 46 30.02 46 29 C48.475 29.99 48.475 29.99 51 31 C51.08083491 27.44326383 50.88973828 24.43184765 50 21 C51 20 51 20 54.0625 19.9375 C55.5165625 19.9684375 55.5165625 19.9684375 57 20 C57 16.37 57 12.74 57 9 C57.99 9.66 58.98 10.32 60 11 C60.1875 14.125 60.1875 14.125 60 17 C60.99 17 61.98 17 63 17 C63.66 15.68 64.32 14.36 65 13 C65.66 13 66.32 13 67 13 C67.82976496 21.29764957 65.58137028 27.07138445 61 34 C54.3920852 41.61023895 45.92766452 46.42966442 35.828125 47.15625 C24.92818567 47.56245892 16.15806745 44.28203336 8 37 C0.48678939 28.58294451 -2.54012541 19.69610064 -2.23828125 8.49609375 C-1.94774746 5.45263327 -1.21253386 2.80398454 0 0 Z " fill="#33356D" transform="translate(180,38)"/>
<path d="M0 0 C4.29 0 8.58 0 13 0 C17.20683144 10.59604643 21.24269912 21.25277 25.1824646 31.95062256 C25.68627048 33.31809275 26.19117592 34.68515834 26.69717407 36.05181885 C27.41479126 37.99165031 28.12797359 39.93305331 28.83984375 41.875 C29.25613037 43.00679687 29.67241699 44.13859375 30.10131836 45.3046875 C31 48 31 48 31 50 C31.66 50 32.32 50 33 50 C33.259021 48.71287109 33.51804199 47.42574219 33.78491211 46.09960938 C34.91654775 41.02109779 36.59050741 36.26141238 38.44140625 31.40625 C38.76914536 30.5335144 39.09688446 29.66077881 39.43455505 28.76159668 C40.12172581 26.93536443 40.8117902 25.11021857 41.50463867 23.28613281 C42.56919887 20.48235691 43.62415389 17.67510542 44.67773438 14.8671875 C45.34840467 13.08833282 46.01960918 11.30967945 46.69140625 9.53125 C47.16641319 8.26891541 47.16641319 8.26891541 47.65101624 6.9810791 C49.88366443 1.11633557 49.88366443 1.11633557 51 0 C52.99958364 -0.04080783 55.00045254 -0.04254356 57 0 C54.11066757 8.88164512 50.92364152 17.65453014 47.75 26.4375 C47.46097809 27.23837036 47.17195618 28.03924072 46.87417603 28.86437988 C42.74204649 40.30640542 38.53845914 51.71161435 34 63 C30.37 63 26.74 63 23 63 C20.29353297 55.82050898 17.58944087 48.64013196 14.88944435 41.45820522 C13.63544118 38.12286948 12.38042834 34.78792121 11.12304688 31.45385742 C9.67531362 27.61492062 8.23208348 23.77430436 6.7890625 19.93359375 C6.34003571 18.74479111 5.89100891 17.55598846 5.42837524 16.3311615 C3.40273482 10.93006042 1.4537355 5.58447173 0 0 Z " fill="#FDF7F5" transform="translate(79,90)"/>
<path d="M0 0 C4.29 0 8.58 0 13 0 C14.92088066 5.21025445 16.84144037 10.42062706 18.76171875 15.63110352 C19.41332592 17.39903869 20.06501671 19.16694305 20.71679688 20.93481445 C27.66114122 39.77081595 27.66114122 39.77081595 31 49 C32.74223045 46.38665432 33.72003889 44.3446702 34.78759766 41.43676758 C35.12779938 40.51603958 35.4680011 39.59531158 35.81851196 38.64668274 C36.18004364 37.65597275 36.54157532 36.66526276 36.9140625 35.64453125 C37.28856537 34.62775803 37.66306824 33.6109848 38.04891968 32.56340027 C39.24463146 29.31444114 40.43487485 26.0635092 41.625 22.8125 C42.43453658 20.60989397 43.24442805 18.40741834 44.0546875 16.20507812 C46.04057932 10.80489196 48.02198468 5.40307584 50 0 C51.98 0 53.96 0 56 0 C55.42712996 3.96498831 54.58477495 7.52066136 53.17407227 11.26757812 C52.80020889 12.26881714 52.42634552 13.27005615 52.04115295 14.30163574 C51.63698654 15.36740845 51.23282013 16.43318115 50.81640625 17.53125 C50.40083969 18.64052856 49.98527313 19.74980713 49.55711365 20.8927002 C48.23068947 24.43041201 46.89686211 27.9652755 45.5625 31.5 C44.23322263 35.03527633 42.90547341 38.5711213 41.57859802 42.1072998 C40.75339361 44.30497182 39.9265278 46.50202089 39.09779358 48.69836426 C37.31225851 53.44020435 35.54637574 58.17319829 34 63 C30.37 63 26.74 63 23 63 C17.77745514 50.31906039 12.8743384 37.51891155 8.03713989 24.68701172 C7.3450428 22.85222639 6.65125232 21.01807894 5.95578003 19.18457031 C4.96544081 16.57154242 3.98180007 13.95609015 3 11.33984375 C2.69723648 10.54372177 2.39447296 9.74759979 2.08253479 8.92735291 C0.92581702 5.82583302 0 3.33874276 0 0 Z " fill="#FEF7F5" transform="translate(141,90)"/>
<path d="M0 0 C0.99 1.485 0.99 1.485 2 3 C1.67 3.66 1.34 4.32 1 5 C0.67 4.67 0.34 4.34 0 4 C-1.78389985 3.89142308 -3.57210312 3.85312355 -5.35926819 3.84178162 C-7.10306007 3.82709839 -7.10306007 3.82709839 -8.88208008 3.81211853 C-10.16888672 3.80636307 -11.45569336 3.8006076 -12.78149414 3.79467773 C-14.14123333 3.78510438 -15.50096951 3.77509463 -16.86070251 3.76467896 C-20.56298536 3.73756493 -24.26528105 3.71659068 -27.96760869 3.69667697 C-31.83271343 3.67485735 -35.69777832 3.64744904 -39.56285095 3.62062073 C-46.88681792 3.57063925 -54.21080694 3.52572074 -61.53481716 3.48259836 C-71.42829316 3.42405691 -81.3217168 3.35774085 -91.21514606 3.29184818 C-106.81006214 3.1881882 -122.40502288 3.09495581 -138 3 C-138 36.33 -138 69.66 -138 104 C-47.91 104 42.18 104 135 104 C135 70.67 135 37.34 135 3 C111.9 3 88.8 3 65 3 C65.33 2.34 65.66 1.68 66 1 C89.1 1.33 112.2 1.66 136 2 C136 36.32 136 70.64 136 106 C44.92 106 -46.16 106 -140 106 C-140 71.68 -140 37.36 -140 2 C-93.8 2 -47.6 2 0 2 C0 1.34 0 0.68 0 0 Z " fill="#DD8A78" transform="translate(180,62)"/>
<path d="M0 0 C16.83 0 33.66 0 51 0 C51 2.31 51 4.62 51 7 C44.73 7 38.46 7 32 7 C32 25.48 32 43.96 32 63 C28.04 63 24.08 63 20 63 C20 44.52 20 26.04 20 7 C13.4 7 6.8 7 0 7 C0 4.69 0 2.38 0 0 Z " fill="#FDF2EF" transform="translate(227,90)"/>
<path d="M0 0 C3.96 0 7.92 0 12 0 C12 20.79 12 41.58 12 63 C8.04 63 4.08 63 0 63 C0 42.21 0 21.42 0 0 Z " fill="#FEF4F1" transform="translate(207,90)"/>
<path d="M0 0 C4.99464924 0.47568088 8.02785403 1.95160891 12 5 C12.495 5.99 12.495 5.99 13 7 C13.66 6.67 14.32 6.34 15 6 C16.38226016 8.76452033 16.09525387 11.0461363 16.0625 14.125 C16.05347656 15.22070312 16.04445312 16.31640625 16.03515625 17.4453125 C16.02355469 18.28835937 16.01195312 19.13140625 16 20 C15.34 20 14.68 20 14 20 C14 22.64 14 25.28 14 28 C11.61499846 28.85178626 10.3334349 29.09806909 7.875 28.375 C5.43754045 26.58752966 4.89581472 24.8367466 4 22 C1.39393335 22.35945747 0.22352791 22.76787487 -1.625 24.6875 C-3.21807255 27.36675837 -4.11883937 30.01761016 -5 33 C-5.66 33 -6.32 33 -7 33 C-10 26.5 -10 26.5 -10 22 C-10.99 22 -11.98 22 -13 22 C-13.66 20.35 -14.32 18.7 -15 17 C-16.65 17 -18.3 17 -20 17 C-20.33 15.68 -20.66 14.36 -21 13 C-19.73427767 11.84852339 -18.46222094 10.70400686 -17.1875 9.5625 C-16.12595703 8.60537109 -16.12595703 8.60537109 -15.04296875 7.62890625 C-12.02096123 5.21938974 -9.55185206 4.87619915 -5.8125 4.9375 C-3.9253125 4.9684375 -3.9253125 4.9684375 -2 5 C-1.67 4.01 -1.34 3.02 -1 2 C-0.67 1.34 -0.34 0.68 0 0 Z " fill="#0193CC" transform="translate(215,37)"/>
<path d="M0 0 C0.33 0 0.66 0 1 0 C1.0270043 1.45823212 1.04639787 2.91660675 1.0625 4.375 C1.07410156 5.18710937 1.08570313 5.99921875 1.09765625 6.8359375 C1 9 1 9 0 11 C1.74216579 11.86794955 1.74216579 11.86794955 4 12 C6.67602253 10.13208328 8.95962854 7.98516702 11.3671875 5.78515625 C14.56759626 3.61514616 16.20856365 3.83666136 20 4 C20.81082031 3.64292969 21.62164062 3.28585938 22.45703125 2.91796875 C25.94623109 1.65842656 28.1314725 2.39206871 31.6875 3.3125 C32.82574219 3.59738281 33.96398437 3.88226563 35.13671875 4.17578125 C38 5 38 5 40 6 C40 6.66 40 7.32 40 8 C40.99 8 41.98 8 43 8 C44.42944945 10.35438733 45.08661261 11.48032433 44.625 14.25 C44.41875 14.8275 44.2125 15.405 44 16 C43.505 14.515 43.505 14.515 43 13 C39.39867291 10.69515066 34.99463349 9.46469895 31 8 C31.495 9.485 31.495 9.485 32 11 C31.34 11 30.68 11 30 11 C29.67 11.66 29.34 12.32 29 13 C27.30284344 13.31711576 25.59033293 13.55369487 23.875 13.75 C18.3609042 14.64864664 14.40077892 16.43854567 11 21 C11 21.99 11 22.98 11 24 C12.65 24.33 14.3 24.66 16 25 C16 25.66 16 26.32 16 27 C14.35 27 12.7 27 11 27 C11 28.65 11 30.3 11 32 C4.5 36 4.5 36 0 36 C-1.10765663 29.13252891 -0.700773 23.73281213 1 17 C0.01 16.67 -0.98 16.34 -2 16 C-4.55555556 9.66666667 -4.55555556 9.66666667 -3.23046875 5.69140625 C-2.23830314 3.72460446 -1.19182596 1.85176265 0 0 Z " fill="#135594" transform="translate(184,29)"/>
<path d="M0 0 C5.63305322 1.12661064 5.63305322 1.12661064 8.375 4.0625 C8.96410156 4.68640625 9.55320312 5.3103125 10.16015625 5.953125 C12.64058351 8.71266615 15.10246751 11.48548275 17.51953125 14.30078125 C18.63171172 15.57729445 19.80283014 16.80283014 21 18 C21.33 12.06 21.66 6.12 22 0 C23.32 0 24.64 0 26 0 C25.67 9.57 25.34 19.14 25 29 C19.3739624 27.87479248 19.3739624 27.87479248 17.02734375 25.234375 C16.52009766 24.67363281 16.01285156 24.11289063 15.49023438 23.53515625 C14.97783203 22.94605469 14.46542969 22.35695312 13.9375 21.75 C13.42123047 21.17636719 12.90496094 20.60273438 12.37304688 20.01171875 C9.45930166 16.75277824 6.73668329 13.42085411 4 10 C3.67 16.27 3.34 22.54 3 29 C1.68 29 0.36 29 -1 29 C-0.67 19.43 -0.34 9.86 0 0 Z " fill="#FEF2EE" transform="translate(87,186)"/>
<path d="M0 0 C1.65 0 3.3 0 5 0 C5 4.29 5 8.58 5 13 C9.5841963 11.54711014 9.5841963 11.54711014 11 10 C11.07205511 8.31391034 11.08386068 6.62499341 11.0625 4.9375 C11.04896484 3.55884766 11.04896484 3.55884766 11.03515625 2.15234375 C11.02355469 1.44207031 11.01195312 0.73179687 11 0 C15.765625 -0.1953125 15.765625 -0.1953125 17.875 1.5625 C19.44714679 4.96881805 18.76094211 7.40281913 18 11 C16.35 11.66 14.7 12.32 13 13 C15.50975844 18.10915111 18.13194953 23.08334206 21 28 C15.89119171 28.88082902 15.89119171 28.88082902 13 28 C10.43451673 24.94074171 8.69753977 21.60084193 7 18 C6.67 21.3 6.34 24.6 6 28 C3.69 28 1.38 28 -1 28 C-0.67 18.76 -0.34 9.52 0 0 Z " fill="#FDF0EC" transform="translate(191,187)"/>
<path d="M0 0 C5.61 0 11.22 0 17 0 C17 1.32 17 2.64 17 4 C13.7 4 10.4 4 7 4 C7 6.64 7 9.28 7 12 C9.97 12 12.94 12 16 12 C16 13.32 16 14.64 16 16 C13.03 16 10.06 16 7 16 C7 19.3 7 22.6 7 26 C9.97 26 12.94 26 16 26 C16 26.99 16 27.98 16 29 C10.72 29 5.44 29 0 29 C0 19.43 0 9.86 0 0 Z " fill="#FBECE7" transform="translate(167,186)"/>
<path d="M0 0 C0.99 0.66 1.98 1.32 3 2 C3.1875 5.125 3.1875 5.125 3 8 C3.99 8 4.98 8 6 8 C6.66 6.68 7.32 5.36 8 4 C8.66 4 9.32 4 10 4 C10.82740194 12.27401945 8.60803157 18.10660864 4 25 C1.22091751 27.98545 -1.68197367 30.62499168 -5 33 C-5.33 33 -5.66 33 -6 33 C-6.0825 32.0925 -6.165 31.185 -6.25 30.25 C-7.1044182 26.54752114 -8.29466427 25.53079794 -11 23 C-11 22.01 -11 21.02 -11 20 C-8.525 20.99 -8.525 20.99 -6 22 C-5.91916509 18.44326383 -6.11026172 15.43184765 -7 12 C-6 11 -6 11 -2.9375 10.9375 C-1.4834375 10.9684375 -1.4834375 10.9684375 0 11 C0 7.37 0 3.74 0 0 Z " fill="#41377E" transform="translate(237,47)"/>
<path d="M0 0 C1.98 0 3.96 0 6 0 C6.02187378 0.91495239 6.02187378 0.91495239 6.04418945 1.84838867 C6.11894775 4.62871064 6.21551482 7.40786824 6.3125 10.1875 C6.33505859 11.14720703 6.35761719 12.10691406 6.38085938 13.09570312 C6.54706427 20.09189078 6.54706427 20.09189078 10 26 C13.55695956 26.50813708 15.85987777 26.79808556 18.875 24.6875 C20.84460579 21.73309132 21.15429903 19.00134922 21.31640625 15.55078125 C21.35830078 14.70322266 21.40019531 13.85566406 21.44335938 12.98242188 C21.48267578 12.10134766 21.52199219 11.22027344 21.5625 10.3125 C21.60568359 9.41982422 21.64886719 8.52714844 21.69335938 7.60742188 C21.79935353 5.40509892 21.90142051 3.20266527 22 1 C22.99 1 23.98 1 25 1 C25.08745946 4.3956697 25.14054444 7.79104773 25.1875 11.1875 C25.21263672 12.14720703 25.23777344 13.10691406 25.26367188 14.09570312 C25.35686289 23.07310379 25.35686289 23.07310379 22 27 C17.21242054 30.22883266 13.59194732 30.53256641 8 30 C4.264827 28.33992311 2.14172713 26.45613221 0 23 C-0.34057617 20.43457031 -0.34057617 20.43457031 -0.29296875 17.578125 C-0.28330078 16.55332031 -0.27363281 15.52851563 -0.26367188 14.47265625 C-0.23853516 13.40917969 -0.21339844 12.34570312 -0.1875 11.25 C-0.17396484 10.17105469 -0.16042969 9.09210938 -0.14648438 7.98046875 C-0.11116584 5.3198058 -0.06184199 2.66015704 0 0 Z " fill="#FEF8F5" transform="translate(52,186)"/>
<path d="M0 0 C2.31 0 4.62 0 7 0 C7.32613281 0.78503906 7.65226563 1.57007813 7.98828125 2.37890625 C8.64376953 3.95478516 8.64376953 3.95478516 9.3125 5.5625 C9.95638672 7.11130859 9.95638672 7.11130859 10.61328125 8.69140625 C12.05679663 12.13551195 13.52895529 15.56756235 15 19 C17.31 12.73 19.62 6.46 22 0 C23.32 0 24.64 0 26 0 C25.35952645 3.83977684 24.22822779 7.15596714 22.71484375 10.73828125 C22.04291992 12.33833008 22.04291992 12.33833008 21.35742188 13.97070312 C20.88884766 15.07349609 20.42027344 16.17628906 19.9375 17.3125 C19.46505859 18.43462891 18.99261719 19.55675781 18.50585938 20.71289062 C17.34138677 23.47704277 16.17263728 26.239304 15 29 C12.63549805 28.78442383 12.63549805 28.78442383 10 28 C8.72973633 26.0222168 8.72973633 26.0222168 7.83203125 23.44921875 C7.49623047 22.52302734 7.16042969 21.59683594 6.81445312 20.64257812 C6.48380859 19.66740234 6.15316406 18.69222656 5.8125 17.6875 C5.13293791 15.77423196 4.45199857 13.86145241 3.76953125 11.94921875 C3.33024292 10.67050903 3.33024292 10.67050903 2.88208008 9.3659668 C2.05572166 6.99885097 2.05572166 6.99885097 0.8894043 4.87817383 C0 3 0 3 0 0 Z " fill="#FEF4F1" transform="translate(135,186)"/>
<path d="M0 0 C0.66 0.33 1.32 0.66 2 1 C1.67 2.65 1.34 4.3 1 6 C0.34 5.67 -0.32 5.34 -1 5 C-1 4.34 -1 3.68 -1 3 C-2.98 3 -4.96 3 -7 3 C-7.33 4.65 -7.66 6.3 -8 8 C-7.28972656 8.49371094 -6.57945312 8.98742187 -5.84765625 9.49609375 C-4.92855469 10.13675781 -4.00945312 10.77742187 -3.0625 11.4375 C-2.14597656 12.07558594 -1.22945312 12.71367187 -0.28515625 13.37109375 C2 15 2 15 3 16 C3.54003583 20.36455188 3.82152749 23.86685863 1.1875 27.5 C-3.17675655 30.49263307 -6.90468862 30.16175592 -12 30 C-12.66 29.67 -13.32 29.34 -14 29 C-14 27.02 -14 25.04 -14 23 C-13.34 23 -12.68 23 -12 23 C-11.34 23.99 -10.68 24.98 -10 26 C-6.91634129 26.2502157 -6.91634129 26.2502157 -4 26 C-3.67 24.35 -3.34 22.7 -3 21 C-3.71027344 20.50628906 -4.42054688 20.01257813 -5.15234375 19.50390625 C-6.53099609 18.54291016 -6.53099609 18.54291016 -7.9375 17.5625 C-8.85402344 16.92441406 -9.77054688 16.28632813 -10.71484375 15.62890625 C-13 14 -13 14 -14 13 C-14.43369074 9.94557807 -14.4535621 7.0522061 -14 4 C-10.34069581 -0.8397249 -5.61988761 -0.67350323 0 0 Z " fill="#FEF4F1" transform="translate(231,186)"/>
<path d="M0 0 C2.64 0 5.28 0 8 0 C8.33773438 0.78246094 8.67546875 1.56492188 9.0234375 2.37109375 C9.46945312 3.38300781 9.91546875 4.39492187 10.375 5.4375 C10.81585938 6.44683594 11.25671875 7.45617187 11.7109375 8.49609375 C12.75076286 11.12143547 12.75076286 11.12143547 15 12 C15.268125 11.13375 15.53625 10.2675 15.8125 9.375 C16.97111987 6.08208036 18.38209839 3.08872125 20 0 C21.32 0 22.64 0 24 0 C22.65798593 3.63056946 20.97407548 6.71746065 18.9375 10 C15.45703449 16.20725358 15.02232131 21.9799469 15 29 C13.02 29 11.04 29 9 29 C9.020625 28.22398437 9.04125 27.44796875 9.0625 26.6484375 C8.89162844 17.69903979 6.39489802 12.14457346 1.71484375 4.80078125 C0 2 0 2 0 0 Z " fill="#FEF6F3" transform="translate(280,186)"/>
<path d="M0 0 C7.26 0 14.52 0 22 0 C22 1.32 22 2.64 22 4 C19.36 3.67 16.72 3.34 14 3 C14 11.58 14 20.16 14 29 C12.02 29 10.04 29 8 29 C8 20.42 8 11.84 8 3 C5.36 3.33 2.72 3.66 0 4 C0 2.68 0 1.36 0 0 Z " fill="#FEF5F2" transform="translate(254,186)"/>
<path d="M0 0 C2.31 0 4.62 0 7 0 C7 9.57 7 19.14 7 29 C4.69 29 2.38 29 0 29 C0 19.43 0 9.86 0 0 Z " fill="#FCEDE9" transform="translate(241,186)"/>
<path d="M0 0 C2.31 0 4.62 0 7 0 C7 9.57 7 19.14 7 29 C4.69 29 2.38 29 0 29 C0 19.43 0 9.86 0 0 Z " fill="#FDEDE9" transform="translate(121,186)"/>
<path d="M0 0 C0.66 1.32 1.32 2.64 2 4 C1.34 4 0.68 4 0 4 C-0.33 4.66 -0.66 5.32 -1 6 C-2.69715656 6.31711576 -4.40966707 6.55369487 -6.125 6.75 C-11.6390958 7.64864664 -15.59922108 9.43854567 -19 14 C-19 14.99 -19 15.98 -19 17 C-17.35 17.33 -15.7 17.66 -14 18 C-14 18.33 -14 18.66 -14 19 C-21.42857143 19.28571429 -21.42857143 19.28571429 -25 17 C-25 12.92732526 -24.9659822 10.27401224 -22.46875 6.98046875 C-15.80295895 0.69822521 -8.87738499 -0.37776106 0 0 Z " fill="#0074B2" transform="translate(214,36)"/>
<path d="M0 0 C1.423125 -0.061875 2.84625 -0.12375 4.3125 -0.1875 C5.51326172 -0.23970703 5.51326172 -0.23970703 6.73828125 -0.29296875 C9 0 9 0 10.76953125 1.26171875 C12.24312122 3.34345696 12.40376248 4.46890199 12.375 7 C12.38273437 7.680625 12.39046875 8.36125 12.3984375 9.0625 C11.87313531 11.61691066 11.11606316 12.49119559 9 14 C6.73828125 14.29296875 6.73828125 14.29296875 4.3125 14.1875 C2.889375 14.125625 1.46625 14.06375 0 14 C0 9.38 0 4.76 0 0 Z " fill="#3E3F42" transform="translate(269,238)"/>
<path d="M0 0 C1.423125 -0.061875 2.84625 -0.12375 4.3125 -0.1875 C5.51326172 -0.23970703 5.51326172 -0.23970703 6.73828125 -0.29296875 C9 0 9 0 10.76953125 1.26171875 C12.24312122 3.34345696 12.40376248 4.46890199 12.375 7 C12.38273438 7.680625 12.39046875 8.36125 12.3984375 9.0625 C11.87313531 11.61691066 11.11606316 12.49119559 9 14 C6.73828125 14.29296875 6.73828125 14.29296875 4.3125 14.1875 C2.889375 14.125625 1.46625 14.06375 0 14 C0 9.38 0 4.76 0 0 Z " fill="#3E3F42" transform="translate(140,238)"/>
<path d="M0 0 C1.423125 -0.061875 2.84625 -0.12375 4.3125 -0.1875 C5.51326172 -0.23970703 5.51326172 -0.23970703 6.73828125 -0.29296875 C9 0 9 0 10.76953125 1.26171875 C12.24312122 3.34345696 12.40376248 4.46890199 12.375 7 C12.38273438 7.680625 12.39046875 8.36125 12.3984375 9.0625 C11.87313531 11.61691066 11.11606316 12.49119559 9 14 C6.73828125 14.29296875 6.73828125 14.29296875 4.3125 14.1875 C2.889375 14.125625 1.46625 14.06375 0 14 C0 9.38 0 4.76 0 0 Z " fill="#464649" transform="translate(124,238)"/>
<path d="M0 0 C3.41076206 3.41076206 4.11007927 7.38936798 4.1953125 12.0859375 C4.18219489 13.51575693 4.15860452 14.94551534 4.125 16.375 C4.11597656 17.11105469 4.10695312 17.84710938 4.09765625 18.60546875 C4.07430144 20.4037888 4.03843836 22.20193911 4 24 C2.9375 22.1875 2.9375 22.1875 2 20 C2.33 19.01 2.66 18.02 3 17 C0.2160817 18.39195915 0.02101003 20.15575779 -1 23 C-1.33 22.34 -1.66 21.68 -2 21 C-2.66 21 -3.32 21 -4 21 C-4.309375 19.906875 -4.61875 18.81375 -4.9375 17.6875 C-6.46627889 12.21319305 -6.46627889 12.21319305 -10 8 C-9.01 7.67 -8.02 7.34 -7 7 C-4.8125 8.3125 -4.8125 8.3125 -3 10 C-3 10.66 -3 11.32 -3 12 C-2.34 12 -1.68 12 -1 12 C-1.66 11.01 -2.32 10.02 -3 9 C-3 7.68 -3 6.36 -3 5 C-2.01 5 -1.02 5 0 5 C0 3.35 0 1.7 0 0 Z " fill="#625493" transform="translate(244,34)"/>
<path d="M0 0 C1.89878906 -0.02126953 1.89878906 -0.02126953 3.8359375 -0.04296875 C7.80823775 0.19864539 10.86534042 0.95856735 14.625 2.1875 C10.875 3.3125 10.875 3.3125 8.625 2.1875 C8.625 2.8475 8.625 3.5075 8.625 4.1875 C9.285 4.5175 9.945 4.8475 10.625 5.1875 C9.625 6.1875 9.625 6.1875 7.0625 6.25 C5.8559375 6.2190625 5.8559375 6.2190625 4.625 6.1875 C4.295 4.8675 3.965 3.5475 3.625 2.1875 C2.965 2.1875 2.305 2.1875 1.625 2.1875 C1.955 3.1775 2.285 4.1675 2.625 5.1875 C1.04774653 5.88883599 -0.53711333 6.573083 -2.125 7.25 C-3.00671875 7.63285156 -3.8884375 8.01570313 -4.796875 8.41015625 C-7.52756309 9.23350008 -8.74401347 9.1648992 -11.375 8.1875 C-11.705 5.8775 -12.035 3.5675 -12.375 1.1875 C-8.21390984 0.19107036 -4.27313527 0.02166904 0 0 Z " fill="#5B88A6" transform="translate(213.375,14.8125)"/>
<path d="M0 0 C1.65 0 3.3 0 5 0 C5.09744014 8.72630608 5.16711095 17.33003296 4 26 C2.68 26.33 1.36 26.66 0 27 C0 18.09 0 9.18 0 0 Z " fill="#FEFCFB" transform="translate(191,187)"/>
<path d="M0 0 C4.62 0 9.24 0 14 0 C13.01 0.495 13.01 0.495 12 1 C12.33 1.99 12.66 2.98 13 4 C13.45016077 10.3022508 13.45016077 10.3022508 11.75 12.9375 C10 14 10 14 6 14 C6 9.71 6 5.42 6 1 C4.35 1 2.7 1 1 1 C1 8.92 1 16.84 1 25 C0.67 25 0.34 25 0 25 C0 16.75 0 8.5 0 0 Z " fill="#FCD8D0" transform="translate(190,186)"/>
<path d="M0 0 C2 1 2 1 3 3.9375 C3.33 4.948125 3.66 5.95875 4 7 C4.66 7.66 5.32 8.32 6 9 C6.125 12.125 6.125 12.125 6 15 C4.35 15.66 2.7 16.32 1 17 C1.33 20.3 1.66 23.6 2 27 C-1 27 -1 27 -4 25 C-3.505 25.845625 -3.01 26.69125 -2.5 27.5625 C-0.85252292 31.33796832 -0.75569053 33.92817548 -1 38 C-4.41158256 36.86280581 -5.11854601 35.95657056 -7 33 C-7 32.34 -7 31.68 -7 31 C-6.01 31 -5.02 31 -4 31 C-4.33 28.69 -4.66 26.38 -5 24 C-4.01 23.67 -3.02 23.34 -2 23 C-1.67 20.36 -1.34 17.72 -1 15 C-0.34 15 0.32 15 1 15 C0.67 10.05 0.34 5.1 0 0 Z " fill="#1070AF" transform="translate(230,42)"/>
<path d="M0 0 C2 2 2 2 2.125 4.625 C2.08375 5.40875 2.0425 6.1925 2 7 C3.32 7.33 4.64 7.66 6 8 C5.855625 8.61746094 5.71125 9.23492187 5.5625 9.87109375 C4.2802401 15.72140455 3.80691904 21.01449037 4 27 C4.99 27.33 5.98 27.66 7 28 C5.68 28 4.36 28 3 28 C2.34 25.69 1.68 23.38 1 21 C0.34 21 -0.32 21 -1 21 C-3.00136469 14.17934915 -2.82456009 6.53179521 0 0 Z " fill="#204D89" transform="translate(180,38)"/>
<path d="M0 0 C0.99 0 1.98 0 3 0 C3.08745946 3.3956697 3.14054444 6.79104773 3.1875 10.1875 C3.21263672 11.14720703 3.23777344 12.10691406 3.26367188 13.09570312 C3.35686289 22.07310379 3.35686289 22.07310379 0 26 C-4.7827493 29.22557511 -8.43336539 29.28792938 -14 29 C-11.96718599 26.36929952 -10.82911718 25.9572793 -7.5 25.125 C-3.98971502 24.3340094 -3.98971502 24.3340094 -2.32421875 22.04296875 C-0.46589249 17.7726556 -0.43289063 13.80018114 -0.3125 9.1875 C-0.27833984 8.30384766 -0.24417969 7.42019531 -0.20898438 6.50976562 C-0.12689567 4.34027833 -0.06176121 2.1701611 0 0 Z " fill="#FEF0EB" transform="translate(74,187)"/>
<path d="M0 0 C6.15234375 -0.09765625 6.15234375 -0.09765625 8 0 C9 1 9 1 9.125 3.3125 C9 6 9 6 8.375 8.0625 C7.87811029 10.6297635 8.67320572 11.81469177 10 14 C8.68 14 7.36 14 6 14 C5.34 12.68 4.68 11.36 4 10 C3.67 11.32 3.34 12.64 3 14 C2.01 14 1.02 14 0 14 C0 9.38 0 4.76 0 0 Z " fill="#424346" transform="translate(100,238)"/>
<path d="M0 0 C1.42892578 0.185625 1.42892578 0.185625 2.88671875 0.375 C3.87285156 0.519375 4.85898438 0.66375 5.875 0.8125 C6.80054688 0.94269531 7.72609375 1.07289062 8.6796875 1.20703125 C11 2 11 2 12.34375 3.93359375 C13.11673096 6.36756354 12.8480463 7.62547035 12 10 C11.505 8.515 11.505 8.515 11 7 C2.63930279 1.9362226 -6.3730144 0.88284796 -15.78515625 3.18359375 C-19.63119415 4.60126909 -22.45659292 6.79906439 -25 10 C-26.07362438 12.39169003 -26.53065928 14.39255153 -27 17 C-27.66 16.34 -28.32 15.68 -29 15 C-28.75992993 10.55870363 -27.14255375 8.0659061 -24 5 C-15.85376042 0.02562386 -9.43488976 -1.54301434 0 0 Z " fill="#04609F" transform="translate(216,35)"/>
<path d="M0 0 C0.90492188 0.02320313 1.80984375 0.04640625 2.7421875 0.0703125 C4.10730469 0.09738281 4.10730469 0.09738281 5.5 0.125 C6.19867188 0.14820313 6.89734375 0.17140625 7.6171875 0.1953125 C7.6171875 3.1653125 7.6171875 6.1353125 7.6171875 9.1953125 C6.2971875 8.8653125 4.9771875 8.5353125 3.6171875 8.1953125 C2.7715625 8.3809375 1.9259375 8.5665625 1.0546875 8.7578125 C-1.3828125 9.1953125 -1.3828125 9.1953125 -4.3828125 7.1953125 C-4.6953125 4.6953125 -4.6953125 4.6953125 -4.3828125 2.1953125 C-2.3828125 0.1953125 -2.3828125 0.1953125 0 0 Z " fill="#C5C5C6" transform="translate(211.3828125,258.8046875)"/>
<path d="M0 0 C2.31 0 4.62 0 7 0 C7.66 0.66 8.32 1.32 9 2 C8.60467975 4.45098556 7.78698574 6.63904279 7 9 C7.87914688 11.6569191 7.87914688 11.6569191 9 14 C7.68 13.67 6.36 13.34 5 13 C4.67 11.35 4.34 9.7 4 8 C3.34 8 2.68 8 2 8 C2 9.98 2 11.96 2 14 C1.34 14 0.68 14 0 14 C0 9.38 0 4.76 0 0 Z " fill="#2C2C2F" transform="translate(285,238)"/>
<path d="M0 0 C1.23556641 0.01740234 1.23556641 0.01740234 2.49609375 0.03515625 C3.32238281 0.04417969 4.14867187 0.05320312 5 0.0625 C5.63808594 0.07410156 6.27617187 0.08570313 6.93359375 0.09765625 C6.93359375 1.08765625 6.93359375 2.07765625 6.93359375 3.09765625 C8.25359375 3.09765625 9.57359375 3.09765625 10.93359375 3.09765625 C11.26359375 2.10765625 11.59359375 1.11765625 11.93359375 0.09765625 C11.93359375 2.73765625 11.93359375 5.37765625 11.93359375 8.09765625 C11.60359375 6.77765625 11.27359375 5.45765625 10.93359375 4.09765625 C9.61359375 4.09765625 8.29359375 4.09765625 6.93359375 4.09765625 C6.93359375 5.41765625 6.93359375 6.73765625 6.93359375 8.09765625 C0.87890625 9.07421875 0.87890625 9.07421875 -1.06640625 9.09765625 C-3.06640625 7.09765625 -3.06640625 7.09765625 -3.25390625 4.03515625 C-3.00540899 0.14203256 -3.00540899 0.14203256 0 0 Z " fill="#BABBBB" transform="translate(157.06640625,258.90234375)"/>
<path d="M0 0 C1.32 0 2.64 0 4 0 C4 0.66 4 1.32 4 2 C4.928125 1.7215625 4.928125 1.7215625 5.875 1.4375 C8 1 8 1 10 2 C9.70820766 5.50150804 9.21713533 6.78286467 6.6875 9.3125 C4 11 4 11 0 11 C-0.19491452 9.54263913 -0.38069358 8.08405407 -0.5625 6.625 C-0.66691406 5.81289063 -0.77132812 5.00078125 -0.87890625 4.1640625 C-1 2 -1 2 0 0 Z " fill="#0A63A0" transform="translate(184,54)"/>
<path d="M0 0 C0.99 0 1.98 0 3 0 C3.33 1.65 3.66 3.3 4 5 C5.32 3.35 6.64 1.7 8 0 C8.66 0.33 9.32 0.66 10 1 C9.484375 1.5775 8.96875 2.155 8.4375 2.75 C6.78246864 4.83046099 6.78246864 4.83046099 7.1875 6.9375 C7.455625 7.618125 7.72375 8.29875 8 9 C8.350625 9.9075 8.70125 10.815 9.0625 11.75 C9.371875 12.4925 9.68125 13.235 10 14 C8.68 13.67 7.36 13.34 6 13 C5.67 11.68 5.34 10.36 5 9 C4.34 9 3.68 9 3 9 C3 10.98 3 12.96 3 15 C2.01 15 1.02 15 0 15 C0 10.05 0 5.1 0 0 Z " fill="#515255" transform="translate(216,238)"/>
<path d="M0 0 C3.63 0 7.26 0 11 0 C11 2.64 11 5.28 11 8 C10.34 8 9.68 8 9 8 C8.67 7.34 8.34 6.68 8 6 C7.67 6.66 7.34 7.32 7 8 C4.69 8 2.38 8 0 8 C0 5.36 0 2.72 0 0 Z " fill="#ACACAD" transform="translate(279,259)"/>
<path d="M0 0 C0.99 0.33 1.98 0.66 3 1 C4.16796875 3.43359375 4.16796875 3.43359375 5.1875 6.4375 C5.53167969 7.42621094 5.87585938 8.41492188 6.23046875 9.43359375 C7 12 7 12 7 14 C5.68 14 4.36 14 3 14 C3 12.68 3 11.36 3 10 C1.35 10 -0.3 10 -2 10 C-2.33 11.32 -2.66 12.64 -3 14 C-3.66 13.67 -4.32 13.34 -5 13 C-3.35 8.71 -1.7 4.42 0 0 Z " fill="#45464A" transform="translate(233,238)"/>
<path d="M0 0 C1.32 0 2.64 0 4 0 C3.38965243 3.48576282 2.48391539 6.5871923 1.15234375 9.86328125 C0.79462891 10.74951172 0.43691406 11.63574219 0.06835938 12.54882812 C-0.49141602 13.9168457 -0.49141602 13.9168457 -1.0625 15.3125 C-1.43955078 16.24384766 -1.81660156 17.17519531 -2.20507812 18.13476562 C-3.13283125 20.42478917 -4.06458001 22.71309996 -5 25 C-5.12375 24.360625 -5.2475 23.72125 -5.375 23.0625 C-5.58125 22.381875 -5.7875 21.70125 -6 21 C-6.66 20.67 -7.32 20.34 -8 20 C-7.4225 18.9275 -6.845 17.855 -6.25 16.75 C-3.54694342 11.38250193 -1.79298556 5.72229433 0 0 Z " fill="#FCE7E1" transform="translate(157,186)"/>
<path d="M0 0 C0.99 0 1.98 0 3 0 C3.67260351 1.76858691 4.33788395 3.53996016 5 5.3125 C5.37125 6.29863281 5.7425 7.28476563 6.125 8.30078125 C7 11 7 11 7 14 C5.68 13.67 4.36 13.34 3 13 C3 12.01 3 11.02 3 10 C1.35 10 -0.3 10 -2 10 C-2.66 11.32 -3.32 12.64 -4 14 C-3.00956295 9.16371695 -2.04301154 4.52381127 0 0 Z " fill="#434447" transform="translate(72,238)"/>
<path d="M0 0 C0.66 0 1.32 0 2 0 C2.67260351 1.76858691 3.33788395 3.53996016 4 5.3125 C4.37125 6.29863281 4.7425 7.28476563 5.125 8.30078125 C6 11 6 11 6 14 C5.01 14 4.02 14 3 14 C2.67 13.01 2.34 12.02 2 11 C0.68 11 -0.64 11 -2 11 C-2.33 11.99 -2.66 12.98 -3 14 C-3.66 14 -4.32 14 -5 14 C-4.34580901 8.93001981 -2.1453591 4.58009223 0 0 Z " fill="#6B6C6E" transform="translate(259,238)"/>
<path d="M0 0 C6.0546875 -0.1953125 6.0546875 -0.1953125 8 0 C8.66 0.66 9.32 1.32 10 2 C9.54625 2.53625 9.0925 3.0725 8.625 3.625 C6.78311688 6.31698302 5.92028067 8.88520388 5 12 C4.34 12 3.68 12 3 12 C-0.42857143 4.71428571 -0.42857143 4.71428571 0 0 Z " fill="#6FC9EE" transform="translate(205,58)"/>
<path d="M0 0 C4.53786224 2.26893112 5.94678157 4.09866534 9 8 C9.33 5.36 9.66 2.72 10 0 C10.33 0 10.66 0 11 0 C11 4.62 11 9.24 11 14 C6.46213776 11.73106888 5.05321843 9.90133466 2 6 C1.67 8.64 1.34 11.28 1 14 C0.67 14 0.34 14 0 14 C0 9.38 0 4.76 0 0 Z " fill="#3A3A3D" transform="translate(201,238)"/>
<path d="M0 0 C1.875 0.6875 1.875 0.6875 2.875 1.6875 C3.0625 4.625 3.0625 4.625 2.875 7.6875 C2.215 8.3475 1.555 9.0075 0.875 9.6875 C-3.68055556 9.13194444 -3.68055556 9.13194444 -5.125 7.6875 C-5.375 4.75 -5.375 4.75 -5.125 1.6875 C-2.125 -0.3125 -2.125 -0.3125 0 0 Z " fill="#676869" transform="translate(202.125,258.3125)"/>
<path d="M0 0 C5 1 5 1 6 2 C6.27314815 7.73611111 6.27314815 7.73611111 6 10 C5.34 10.66 4.68 11.32 4 12 C2.68 12 1.36 12 0 12 C0 8.04 0 4.08 0 0 Z " fill="#F5F5F5" transform="translate(272,239)"/>
<path d="M0 0 C5 1 5 1 6 2 C6.27314815 7.73611111 6.27314815 7.73611111 6 10 C5.34 10.66 4.68 11.32 4 12 C2.68 12 1.36 12 0 12 C0 8.04 0 4.08 0 0 Z " fill="#F5F5F5" transform="translate(143,239)"/>
<path d="M0 0 C5 1 5 1 6 2 C6.35897436 8.46153846 6.35897436 8.46153846 4 12 C2.68 12 1.36 12 0 12 C0 8.04 0 4.08 0 0 Z " fill="#F5F5F6" transform="translate(127,239)"/>
<path d="M0 0 C1.32 0 2.64 0 4 0 C4.99 2.64 5.98 5.28 7 8 C7.99 5.36 8.98 2.72 10 0 C10.66 0 11.32 0 12 0 C11.54636829 1.58468677 11.08688548 3.16769924 10.625 4.75 C10.36976563 5.63171875 10.11453125 6.5134375 9.8515625 7.421875 C9.0790066 9.76080572 8.16374324 11.83442562 7 14 C6.01 13.67 5.02 13.34 4 13 C2.83203125 10.56640625 2.83203125 10.56640625 1.8125 7.5625 C1.46832031 6.57378906 1.12414062 5.58507812 0.76953125 4.56640625 C0 2 0 2 0 0 Z " fill="#494A4D" transform="translate(175,238)"/>
<path d="M0 0 C2.64 0 5.28 0 8 0 C8 0.66 8 1.32 8 2 C6.35 2 4.7 2 3 2 C3 3.32 3 4.64 3 6 C4.32 6 5.64 6 7 6 C7 6.66 7 7.32 7 8 C5.68 8 4.36 8 3 8 C3 9.65 3 11.3 3 13 C4.32 13.33 5.64 13.66 7 14 C4.69 14 2.38 14 0 14 C0 9.38 0 4.76 0 0 Z " fill="#454548" transform="translate(113,238)"/>
<path d="M0 0 C1.875 0.125 1.875 0.125 4 1 C5.25 4.0625 5.25 4.0625 6 7 C8.22189824 4.77810176 8.92598892 2.91517292 10 0 C10.66 0.33 11.32 0.66 12 1 C10.35 5.29 8.7 9.58 7 14 C6.01 14 5.02 14 4 14 C3.32968281 12.0429132 2.66385317 10.08428887 2 8.125 C1.62875 7.03445312 1.2575 5.94390625 0.875 4.8203125 C0 2 0 2 0 0 Z " fill="#494A4C" transform="translate(54,238)"/>
<path d="M0 0 C0 0.66 0 1.32 0 2 C-0.71285156 2.07476562 -1.42570312 2.14953125 -2.16015625 2.2265625 C-8.29289137 3.0684723 -12.26390151 4.26038756 -16.85546875 8.46484375 C-18.29885639 10.08171323 -18.29885639 10.08171323 -18 13 C-16.35 13.33 -14.7 13.66 -13 14 C-13 14.33 -13 14.66 -13 15 C-15.31 15 -17.62 15 -20 15 C-20 14.34 -20 13.68 -20 13 C-20.66 13 -21.32 13 -22 13 C-19.79410478 6.72168282 -15.87343462 3.7872778 -10.4296875 0.1640625 C-6.56892534 -1.68562741 -4.07315896 -1.0368041 0 0 Z " fill="#0582BE" transform="translate(213,40)"/>
<path d="M0 0 C2.31 0 4.62 0 7 0 C7 0.66 7 1.32 7 2 C5.68 2 4.36 2 3 2 C3 3.32 3 4.64 3 6 C4.32 6 5.64 6 7 6 C7 6.66 7 7.32 7 8 C5.68 8 4.36 8 3 8 C3 9.65 3 11.3 3 13 C4.32 13.33 5.64 13.66 7 14 C4.69 14 2.38 14 0 14 C0 9.38 0 4.76 0 0 Z " fill="#434447" transform="translate(190,238)"/>
<path d="M0 0 C1.32 0 2.64 0 4 0 C4 4.95 4 9.9 4 15 C2.68 15 1.36 15 0 15 C0 10.05 0 5.1 0 0 Z " fill="#6A6B6D" transform="translate(297,238)"/>
<path d="M0 0 C1.32 0.33 2.64 0.66 4 1 C4.33 2.32 4.66 3.64 5 5 C5.66 5 6.32 5 7 5 C7.66 3.35 8.32 1.7 9 0 C9.33 0.99 9.66 1.98 10 3 C9.33333333 4.33333333 8.66666667 5.66666667 8 7 C7.61250787 9.32495277 7.27017161 11.65851268 7 14 C6.01 14 5.02 14 4 14 C3.71125 12.80375 3.4225 11.6075 3.125 10.375 C2.2475666 6.85273164 1.19979363 3.42798179 0 0 Z " fill="#4B4B4E" transform="translate(155,238)"/>
<path d="M0 0 C1.65 0 3.3 0 5 0 C6 1 6 1 6.25 4.375 C6 8 6 8 4.6875 9.9375 C3 11 3 11 0 11 C0 7.37 0 3.74 0 0 Z " fill="#DA8472" transform="translate(197,189)"/>
<path d="M0 0 C0.78375 0.04125 1.5675 0.0825 2.375 0.125 C2.045 0.785 1.715 1.445 1.375 2.125 C0.385 2.125 -0.605 2.125 -1.625 2.125 C-0.49195008 5.52414975 0.50018475 6.17754451 3.375 8.125 C2.625 12.875 2.625 12.875 0.375 15.125 C-2.25 14.75 -2.25 14.75 -4.625 14.125 C-4.295 13.465 -3.965 12.805 -3.625 12.125 C-1.645 12.62 -1.645 12.62 0.375 13.125 C0.375 11.805 0.375 10.485 0.375 9.125 C-2.1 8.135 -2.1 8.135 -4.625 7.125 C-4.75 4.75 -4.75 4.75 -4.625 2.125 C-2.625 0.125 -2.625 0.125 0 0 Z " fill="#444547" transform="translate(86.625,237.875)"/>
<path d="M0 0 C6.7281627 -0.22262303 12.53991163 0.04978464 19 2 C17.94921875 3.48828125 17.94921875 3.48828125 16 5 C12.64453125 5.29296875 12.64453125 5.29296875 8.8125 5.1875 C7.54019531 5.16042969 6.26789063 5.13335937 4.95703125 5.10546875 C3.98121094 5.07066406 3.00539062 5.03585938 2 5 C1.34 3.35 0.68 1.7 0 0 Z " fill="#31BBE8" transform="translate(200,54)"/>
<path d="M0 0 C2 2 2 2 2.125 4.625 C2.08375 5.40875 2.0425 6.1925 2 7 C2.99 7.33 3.98 7.66 5 8 C4.360625 8.495 3.72125 8.99 3.0625 9.5 C0.18484731 12.98806387 0.29769264 15.53461041 0 20 C-2.97387455 15.53918818 -2.38766968 11.23354074 -2 6 C-1 2.3125 -1 2.3125 0 0 Z " fill="#33497B" transform="translate(180,38)"/>
<path d="M0 0 C2.64 0 5.28 0 8 0 C8 2.64 8 5.28 8 8 C6.68 8 5.36 8 4 8 C2.65835921 8.2981424 1.32148827 8.62243192 0 9 C0 8.34 0 7.68 0 7 C0.99 7 1.98 7 3 7 C3 6.34 3 5.68 3 5 C2.01 4.67 1.02 4.34 0 4 C0 2.68 0 1.36 0 0 Z " fill="#848486" transform="translate(292,259)"/>
<path d="M0 0 C2 1 2 1 2 1 Z M-1.73828125 1.31640625 C-0.87783203 1.65478516 -0.87783203 1.65478516 0 2 C-1.91523185 4.02163362 -3.8708751 5.69314549 -6.0625 7.4375 C-8.62245803 9.67065487 -9.91884841 10.86466038 -11 14 C-11 14.66 -11 15.32 -11 16 C-10.34 16.33 -9.68 16.66 -9 17 C-10.32 16.67 -11.64 16.34 -13 16 C-13 11.77755774 -12.98025934 9.22027707 -10.29296875 5.875 C-4.86399006 0.87913092 -4.86399006 0.87913092 -1.73828125 1.31640625 Z " fill="#026CAB" transform="translate(202,37)"/>
<path d="M0 0 C0.33 0 0.66 0 1 0 C1 9.57 1 19.14 1 29 C3.31 29 5.62 29 8 29 C8 25.37 8 21.74 8 18 C8.99 18.99 9.98 19.98 11 21 C10.79808149 24.15975177 9.84603286 26.92756486 9 30 C6.03 30 3.06 30 0 30 C0 20.1 0 10.2 0 0 Z " fill="#D38473" transform="translate(189,186)"/>
<path d="M0 0 C3 3.625 3 3.625 3 7 C4.6396875 6.2575 4.6396875 6.2575 6.3125 5.5 C10 4 10 4 13 4 C11.02 4.99 11.02 4.99 9 6 C9.185625 6.598125 9.37125 7.19625 9.5625 7.8125 C10 10 10 10 9 13 C7.25 12.875 7.25 12.875 5 12 C1.83394453 8.1102747 0.47451785 4.98243747 0 0 Z " fill="#294574" transform="translate(180,59)"/>
<path d="M0 0 C0.68707555 2.49064888 1 4.37886292 1 7 C-2.89164348 8.29721449 -5.89429226 8.13033993 -10 8 C-10.66 7.67 -11.32 7.34 -12 7 C-12 5.02 -12 3.04 -12 1 C-11.34 1 -10.68 1 -10 1 C-9.34 1.99 -8.68 2.98 -8 4 C-4.91634129 4.2502157 -4.91634129 4.2502157 -2 4 C-1.34 2.68 -0.68 1.36 0 0 Z " fill="#FDE6DE" transform="translate(229,208)"/>
<path d="M0 0 C2.3129482 2.3129482 2.49580975 3.47904875 3.125 6.625 C3.29257813 7.44226562 3.46015625 8.25953125 3.6328125 9.1015625 C3.81457031 10.04128906 3.81457031 10.04128906 4 11 C2.109375 11.57421875 2.109375 11.57421875 0 12 C-1.75 10.8125 -1.75 10.8125 -3 9 C-3 7.68 -3 6.36 -3 5 C-2.01 5 -1.02 5 0 5 C0 3.35 0 1.7 0 0 Z " fill="#8B88B9" transform="translate(244,34)"/>
<path d="M0 0 C2.875 -0.125 2.875 -0.125 6 0 C6.66 0.66 7.32 1.32 8 2 C7.8125 4 7.8125 4 7 6 C6.01 6.66 5.02 7.32 4 8 C3.01 7.67 2.02 7.34 1 7 C0.67 4.69 0.34 2.38 0 0 Z " fill="#7C7C7F" transform="translate(286,238)"/>
<path d="M0 0 C3.875 1.875 3.875 1.875 5 3 C5.33 2.01 5.66 1.02 6 0 C6.66 0 7.32 0 8 0 C8 2.64 8 5.28 8 8 C4.125 6.125 4.125 6.125 3 5 C2.67 5.99 2.34 6.98 2 8 C1.34 8 0.68 8 0 8 C0 5.36 0 2.72 0 0 Z " fill="#7A7A7B" transform="translate(113,259)"/>
<path d="M0 0 C2.475 0.495 2.475 0.495 5 1 C5.02694851 2.95825873 5.04637218 4.91662226 5.0625 6.875 C5.07410156 7.96554688 5.08570313 9.05609375 5.09765625 10.1796875 C5 13 5 13 4 15 C3.34 14.67 2.68 14.34 2 14 C2.04125 13.05125 2.0825 12.1025 2.125 11.125 C2.34973818 7.89755144 2.34973818 7.89755144 0 6 C-0.125 2.875 -0.125 2.875 0 0 Z " fill="#214D8B" transform="translate(233,43)"/>
<path d="M0 0 C0.99 0 1.98 0 3 0 C3 4.62 3 9.24 3 14 C2.01 14 1.02 14 0 14 C0 9.38 0 4.76 0 0 Z " fill="#3F4043" transform="translate(93,238)"/>
<path d="M0 0 C0.66 0.33 1.32 0.66 2 1 C1.484375 1.5775 0.96875 2.155 0.4375 2.75 C-1.21753136 4.83046099 -1.21753136 4.83046099 -0.8125 6.9375 C-0.544375 7.618125 -0.27625 8.29875 0 9 C0.350625 9.9075 0.70125 10.815 1.0625 11.75 C1.371875 12.4925 1.68125 13.235 2 14 C0.68 13.67 -0.64 13.34 -2 13 C-2.33 11.68 -2.66 10.36 -3 9 C-3.99 9 -4.98 9 -6 9 C-6 6 -6 6 -3.5625 3.375 C-2.716875 2.59125 -1.87125 1.8075 -1 1 C-0.67 0.67 -0.34 0.34 0 0 Z " fill="#3F4043" transform="translate(224,238)"/>
<path d="M0 0 C3.3 0 6.6 0 10 0 C10 0.66 10 1.32 10 2 C8.68 2 7.36 2 6 2 C6 5.96 6 9.92 6 14 C5.34 14 4.68 14 4 14 C4 9.71 4 5.42 4 1 C2.68 0.67 1.36 0.34 0 0 Z " fill="#353639" transform="translate(242,238)"/>
<path d="M0 0 C0.33 0 0.66 0 1 0 C1.0270043 1.45823212 1.04639787 2.91660675 1.0625 4.375 C1.07410156 5.18710937 1.08570313 5.99921875 1.09765625 6.8359375 C1 9 1 9 0 11 C0.66 11 1.32 11 2 11 C2 11.99 2 12.98 2 14 C1.01 14 0.02 14 -1 14 C-2.75 11.5 -2.75 11.5 -4 8 C-3.0724615 5.07589559 -1.64363316 2.58004568 0 0 Z " fill="#146FAD" transform="translate(184,29)"/>
<path d="M0 0 C2.4375 0.8125 2.4375 0.8125 5 2 C5.33 2.99 5.66 3.98 6 5 C6.99 4.67 7.98 4.34 9 4 C9.33 4.66 9.66 5.32 10 6 C8 8 8 8 5 9 C3.5 7.625 3.5 7.625 2 6 C2 5.34 2 4.68 2 4 C0.54166642 2.37485532 0.54166642 2.37485532 -1 1 C-0.67 0.67 -0.34 0.34 0 0 Z " fill="#7370AC" transform="translate(235,41)"/>
<path d="M0 0 C0.99 0.66 1.98 1.32 3 2 C0.03 1.505 0.03 1.505 -3 1 C-3 1.66 -3 2.32 -3 3 C-2.34 3.33 -1.68 3.66 -1 4 C-2 5 -2 5 -4.5625 5.0625 C-5.7690625 5.0315625 -5.7690625 5.0315625 -7 5 C-7.12375 4.360625 -7.2475 3.72125 -7.375 3.0625 C-7.684375 2.0415625 -7.684375 2.0415625 -8 1 C-8.66 0.67 -9.32 0.34 -10 0 C-6.80429821 -1.59785089 -3.38635924 -0.77115111 0 0 Z " fill="#8DB5CF" transform="translate(225,16)"/>
<path d="M0 0 C2.31 0 4.62 0 7 0 C6.43628586 3.26954202 5.50037734 4.82575883 3 7 C2.01 6.67 1.02 6.34 0 6 C0 4.02 0 2.04 0 0 Z " fill="#097BB8" transform="translate(187,57)"/>
<path d="M0 0 C0.99 0.33 1.98 0.66 3 1 C3.33 3.31 3.66 5.62 4 8 C2.0625 7.625 2.0625 7.625 0 7 C-0.33 6.34 -0.66 5.68 -1 5 C-2.65 5 -4.3 5 -6 5 C-2.25 1.125 -2.25 1.125 0 0 Z " fill="#45668B" transform="translate(199,17)"/>
<path d="M0 0 C1.67542976 0.28604898 3.34385343 0.61781233 5 1 C5 2.65 5 4.3 5 6 C2.92446352 6.5534764 1.15634036 7 -1 7 C-1.04254356 5.00045254 -1.04080783 2.99958364 -1 1 C-0.67 0.67 -0.34 0.34 0 0 Z " fill="#8B8C8E" transform="translate(104,238)"/>
<path d="M0 0 C0.78375 0.04125 1.5675 0.0825 2.375 0.125 C1.735625 0.351875 1.09625 0.57875 0.4375 0.8125 C-1.89693661 1.97750896 -1.89693661 1.97750896 -2.375 4.75 C-2.4575 5.53375 -2.54 6.3175 -2.625 7.125 C-1.635 7.125 -0.645 7.125 0.375 7.125 C0.705 6.135 1.035 5.145 1.375 4.125 C2.035 4.125 2.695 4.125 3.375 4.125 C3.375 5.445 3.375 6.765 3.375 8.125 C1.0625 8.75 1.0625 8.75 -1.625 9.125 C-2.615 8.465 -3.605 7.805 -4.625 7.125 C-4.9375 4.625 -4.9375 4.625 -4.625 2.125 C-2.625 0.125 -2.625 0.125 0 0 Z " fill="#6D6E6F" transform="translate(211.625,258.875)"/>
<path d="M0 0 C2.40921705 2.40921705 3.53812156 4.94334509 5 8 C3.02 8 1.04 8 -1 8 C-1.33 9.32 -1.66 10.64 -2 12 C-2.66 11.67 -3.32 11.34 -4 11 C-2.68 7.37 -1.36 3.74 0 0 Z " fill="#737375" transform="translate(232,240)"/>
<path d="M0 0 C0.28875 0.598125 0.5775 1.19625 0.875 1.8125 C2.04742026 4.19327792 2.04742026 4.19327792 4 7 C4.07905064 9.33199388 4.08798769 11.66832622 4 14 C0.58841744 12.86280581 -0.11854601 11.95657056 -2 9 C-2 8.34 -2 7.68 -2 7 C-1.01 7 -0.02 7 1 7 C0.67 4.69 0.34 2.38 0 0 Z " fill="#3E61A0" transform="translate(225,66)"/>
<path d="M0 0 C2.0625 0.4375 2.0625 0.4375 4 1 C3.67 3.31 3.34 5.62 3 8 C1.68 7.67 0.36 7.34 -1 7 C-1.04254356 5.00045254 -1.04080783 2.99958364 -1 1 C-0.67 0.67 -0.34 0.34 0 0 Z " fill="#E3E3E4" transform="translate(106,260)"/>
<path d="M0 0 C2.05078125 0.03255208 4.1015625 0.06510417 6.15234375 0.09765625 C6.48234375 2.07765625 6.81234375 4.05765625 7.15234375 6.09765625 C6.16234375 6.09765625 5.17234375 6.09765625 4.15234375 6.09765625 C3.82234375 5.10765625 3.49234375 4.11765625 3.15234375 3.09765625 C1.83234375 3.09765625 0.51234375 3.09765625 -0.84765625 3.09765625 C-1.17765625 4.08765625 -1.50765625 5.07765625 -1.84765625 6.09765625 C-2.50765625 6.09765625 -3.16765625 6.09765625 -3.84765625 6.09765625 C-2.77957394 0.14691194 -2.77957394 0.14691194 0 0 Z " fill="#444447" transform="translate(257.84765625,245.90234375)"/>
<path d="M0 0 C1.65 0 3.3 0 5 0 C5 2.64 5 5.28 5 8 C4.34 8 3.68 8 3 8 C2.67 7.34 2.34 6.68 2 6 C1.34 6.66 0.68 7.32 0 8 C0 5.36 0 2.72 0 0 Z " fill="#59595B" transform="translate(285,259)"/>
<path d="M0 0 C0.55171875 0.30679688 1.1034375 0.61359375 1.671875 0.9296875 C4.20540121 2.09442941 6.51171762 2.62057956 9.25 3.125 C10.14203125 3.29257812 11.0340625 3.46015625 11.953125 3.6328125 C12.96632812 3.81457031 12.96632812 3.81457031 14 4 C14 4.33 14 4.66 14 5 C12.35 5 10.7 5 9 5 C9 6.65 9 8.3 9 10 C8.01 10 7.02 10 6 10 C6.66 8.35 7.32 6.7 8 5 C6.02 5 4.04 5 2 5 C1.34 3.35 0.68 1.7 0 0 Z " fill="#144B7F" transform="translate(186,51)"/>
<path d="M0 0 C1.45823212 -0.0270043 2.91660675 -0.04639787 4.375 -0.0625 C5.18710938 -0.07410156 5.99921875 -0.08570313 6.8359375 -0.09765625 C9 0 9 0 11 1 C10.67 2.65 10.34 4.3 10 6 C9.34 5.67 8.68 5.34 8 5 C8 4.34 8 3.68 8 3 C5.69 3 3.38 3 1 3 C0.67 2.01 0.34 1.02 0 0 Z " fill="#FEECE5" transform="translate(222,186)"/>
<path d="M0 0 C0.763125 0.66 1.52625 1.32 2.3125 2 C4.84277939 4.29850538 4.84277939 4.29850538 8 4 C8 5.65 8 7.3 8 9 C5.61435923 8.42415568 3.33317216 7.77772405 1 7 C0.67 4.69 0.34 2.38 0 0 Z " fill="#1C96CF" transform="translate(220,57)"/>
<path d="M0 0 C0.99 0 1.98 0 3 0 C3.05416188 1.60379341 3.09286638 3.20811406 3.125 4.8125 C3.14820313 5.70582031 3.17140625 6.59914063 3.1953125 7.51953125 C3 10 3 10 1 13 C0.34 12.67 -0.32 12.34 -1 12 C-0.67 11.67 -0.34 11.34 0 11 C0.15854931 7.43264046 -0.10882809 4.43737738 -1 1 C-0.67 0.67 -0.34 0.34 0 0 Z " fill="#26458D" transform="translate(231,58)"/>
<path d="M0 0 C2.475 0.495 2.475 0.495 5 1 C4.814375 1.598125 4.62875 2.19625 4.4375 2.8125 C3.77906313 5.16408762 3.77906313 5.16408762 5 8 C3.33333333 8 1.66666667 8 0 8 C0 5.36 0 2.72 0 0 Z " fill="#5C5C5E" transform="translate(68,259)"/>
<path d="M0 0 C3 1 3 1 5 4 C5.66 2.68 6.32 1.36 7 0 C7 2.64 7 5.28 7 8 C4 7 4 7 2 4 C1.34 5.32 0.68 6.64 0 8 C0 5.36 0 2.72 0 0 Z " fill="#535355" transform="translate(257,259)"/>
<path d="M0 0 C3.875 1.75 3.875 1.75 5 4 C5.66 2.68 6.32 1.36 7 0 C7 2.64 7 5.28 7 8 C6.34 8 5.68 8 5 8 C3.375 6 3.375 6 2 4 C1.34 5.32 0.68 6.64 0 8 C0 5.36 0 2.72 0 0 Z " fill="#545456" transform="translate(45,259)"/>
<path d="M0 0 C1.32 0 2.64 0 4 0 C4 2.64 4 5.28 4 8 C2.68 7.67 1.36 7.34 0 7 C0 4.69 0 2.38 0 0 Z " fill="#E9E9E9" transform="translate(183,260)"/>
<path d="M0 0 C0.66 0 1.32 0 2 0 C3.25664978 2.90600261 4 4.79604584 4 8 C3.34 8 2.68 8 2 8 C2 7.34 2 6.68 2 6 C1.01 6 0.02 6 -1 6 C-1 6.66 -1 7.32 -1 8 C-1.66 7.67 -2.32 7.34 -3 7 C-2.01 4.69 -1.02 2.38 0 0 Z " fill="#696A6B" transform="translate(231,259)"/>
<path d="M0 0 C0.66 0 1.32 0 2 0 C3.625 2 3.625 2 5 4 C5.66 2.68 6.32 1.36 7 0 C7 2.64 7 5.28 7 8 C4 7 4 7 2 4 C1.34 5.32 0.68 6.64 0 8 C0 5.36 0 2.72 0 0 Z " fill="#535355" transform="translate(172,259)"/>
<path d="M0 0 C0.66 0 1.32 0 2 0 C3.625 2 3.625 2 5 4 C5.66 2.68 6.32 1.36 7 0 C7 2.64 7 5.28 7 8 C4 7 4 7 2 4 C1.34 5.32 0.68 6.64 0 8 C0 5.36 0 2.72 0 0 Z " fill="#515152" transform="translate(75,259)"/>
<path d="M0 0 C0.33 0 0.66 0 1 0 C1 1.98 1 3.96 1 6 C3.47266765 5.65555119 3.47266765 5.65555119 6 5 C6.33 4.34 6.66 3.68 7 3 C7.99 3 8.98 3 10 3 C9.34 4.32 8.68 5.64 8 7 C5.03 7 2.06 7 -1 7 C-1.04254356 5.00045254 -1.04080783 2.99958364 -1 1 C-0.67 0.67 -0.34 0.34 0 0 Z " fill="#39393C" transform="translate(125,245)"/>
<path d="M0 0 C0.99 0 1.98 0 3 0 C2.67 2.97 2.34 5.94 2 9 C1.01 9 0.02 9 -1 9 C-2.0326802 6.21176345 -2.04509293 5.1322726 -1.0625 2.25 C-0.711875 1.5075 -0.36125 0.765 0 0 Z " fill="#7F8083" transform="translate(72,238)"/>
<path d="M0 0 C2 1 2 1 3 3.9375 C3.33 4.948125 3.66 5.95875 4 7 C4.66 7.66 5.32 8.32 6 9 C6.125 12.125 6.125 12.125 6 15 C5.01 15.495 5.01 15.495 4 16 C3.32815382 13.89748139 2.66269032 11.79292237 2 9.6875 C1.443125 7.92986328 1.443125 7.92986328 0.875 6.13671875 C0 3 0 3 0 0 Z " fill="#0C5B99" transform="translate(230,42)"/>
<path d="M0 0 C0.66 0.33 1.32 0.66 2 1 C2.73075648 3.3140622 3.40138258 5.64828869 4 8 C3.34 8 2.68 8 2 8 C2 7.34 2 6.68 2 6 C0.35 6.66 -1.3 7.32 -3 8 C-1.125 1.125 -1.125 1.125 0 0 Z " fill="#69696B" transform="translate(125,259)"/>
<path d="M0 0 C0.66 0 1.32 0 2 0 C2 0.99 2 1.98 2 3 C3.32 3 4.64 3 6 3 C6.33 2.01 6.66 1.02 7 0 C7 2.64 7 5.28 7 8 C6.67 6.68 6.34 5.36 6 4 C4.68 4 3.36 4 2 4 C2 5.32 2 6.64 2 8 C1.34 8 0.68 8 0 8 C0 5.36 0 2.72 0 0 Z " fill="#444547" transform="translate(162,259)"/>
<path d="M0 0 C2.475 0.495 2.475 0.495 5 1 C5 2.98 5 4.96 5 7 C4.01 7.33 3.02 7.66 2 8 C0.74335022 5.09399739 0 3.20395416 0 0 Z " fill="#C0DDF5" transform="translate(206,62)"/>
<path d="M0 0 C2.31 0.66 4.62 1.32 7 2 C6.01 2.66 5.02 3.32 4 4 C4.33 5.32 4.66 6.64 5 8 C3.68 7.67 2.36 7.34 1 7 C0.67 4.69 0.34 2.38 0 0 Z " fill="#7AA9C9" transform="translate(201,16)"/>
<path d="M0 0 C0.66 0 1.32 0 2 0 C2.33 0.99 2.66 1.98 3 3 C3.66 3.33 4.32 3.66 5 4 C5 4.66 5 5.32 5 6 C3.02 6.66 1.04 7.32 -1 8 C-1.125 2.25 -1.125 2.25 0 0 Z " fill="#EAEAEB" transform="translate(290,260)"/>
<path d="M0 0 C0.66 0 1.32 0 2 0 C4.125 4.625 4.125 4.625 3 8 C1.68 7.34 0.36 6.68 -1 6 C-1.33 6.66 -1.66 7.32 -2 8 C-1.47731534 5.23723823 -0.89130413 2.6739124 0 0 Z " fill="#646465" transform="translate(86,259)"/>
<path d="M0 0 C1.48576635 4.01156915 0.80747878 4.48130304 -1 9 C-4.96 8.67 -8.92 8.34 -13 8 C-13 7.67 -13 7.34 -13 7 C-9.37 7 -5.74 7 -2 7 C-1.34 4.69 -0.68 2.38 0 0 Z " fill="#D99181" transform="translate(115,146)"/>
<path d="M0 0 C0.99 0.33 1.98 0.66 3 1 C3 1.99 3 2.98 3 4 C3.66 4 4.32 4 5 4 C5.33 2.68 5.66 1.36 6 0 C6.33 0.66 6.66 1.32 7 2 C6.06553465 4.03144641 5.06775224 6.03533587 4 8 C3.34 8 2.68 8 2 8 C1.34 5.36 0.68 2.72 0 0 Z " fill="#626365" transform="translate(270,259)"/>
<path d="M0 0 C1.32 0 2.64 0 4 0 C4 1.98 4 3.96 4 6 C2.68 6 1.36 6 0 6 C0 4.02 0 2.04 0 0 Z " fill="#F8F9F9" transform="translate(199,260)"/>
<path d="M0 0 C1.65 0 3.3 0 5 0 C4.01 0.33 3.02 0.66 2 1 C2 1.66 2 2.32 2 3 C2.66 3.33 3.32 3.66 4 4 C3.34 4 2.68 4 2 4 C2 4.99 2 5.98 2 7 C2.99 7.33 3.98 7.66 5 8 C3.35 8 1.7 8 0 8 C0 5.36 0 2.72 0 0 Z " fill="#59595B" transform="translate(61,259)"/>
<path d="M0 0 C0.99 0.99 1.98 1.98 3 3 C2.67 3.33 2.34 3.66 2 4 C1.76321284 6.69235776 1.57801975 9.36498156 1.4375 12.0625 C1.39431641 12.82111328 1.35113281 13.57972656 1.30664062 14.36132812 C1.20026367 16.24065438 1.09960066 18.12030244 1 20 C0.67 20 0.34 20 0 20 C0 13.4 0 6.8 0 0 Z " fill="#D68C7D" transform="translate(90,195)"/>
<path d="M0 0 C0.33 0 0.66 0 1 0 C1 6.27 1 12.54 1 19 C0.01 18.01 -0.98 17.02 -2 16 C-1.67 15.67 -1.34 15.34 -1 15 C-0.76346477 12.47403741 -0.57826308 9.96892793 -0.4375 7.4375 C-0.39431641 6.72658203 -0.35113281 6.01566406 -0.30664062 5.28320312 C-0.20028223 3.52238088 -0.09961154 1.7612168 0 0 Z " fill="#CE8474" transform="translate(108,186)"/>
<path d="M0 0 C1.32 0 2.64 0 4 0 C2.92598892 2.91517292 2.22189824 4.77810176 0 7 C-0.66 6.67 -1.32 6.34 -2 6 C-1.34 4.02 -0.68 2.04 0 0 Z " fill="#FDE4DC" transform="translate(300,186)"/>
<path d="M0 0 C1.32 0.33 2.64 0.66 4 1 C3.34 1 2.68 1 2 1 C2 1.66 2 2.32 2 3 C2.66 3.33 3.32 3.66 4 4 C3.34 4 2.68 4 2 4 C2 4.99 2 5.98 2 7 C2.66 7.33 3.32 7.66 4 8 C2.68 8 1.36 8 0 8 C0 5.36 0 2.72 0 0 Z " fill="#515153" transform="translate(148,259)"/>
<path d="M0 0 C0.66 0 1.32 0 2 0 C2.66 0.99 3.32 1.98 4 3 C4.66 3.33 5.32 3.66 6 4 C5.67 5.65 5.34 7.3 5 9 C4.34 9 3.68 9 3 9 C2.01 6.03 1.02 3.06 0 0 Z " fill="#D88877" transform="translate(107,131)"/>
<path d="M0 0 C1 3 1 3 -0.4375 6.1875 C-1.2109375 7.5796875 -1.2109375 7.5796875 -2 9 C-3.125 7.25 -3.125 7.25 -4 5 C-3.07451225 2.30066074 -2.57626463 1.28813232 0 0 Z " fill="#FFEFE8" transform="translate(299,191)"/>
<path d="M0 0 C0.99 0.495 0.99 0.495 2 1 C2.59355614 3.64860427 2.74209269 6.29197322 3 9 C2.01 8.67 1.02 8.34 0 8 C0 5.36 0 2.72 0 0 Z " fill="#0269A7" transform="translate(231,49)"/>
<path d="M0 0 C0 2.64 0 5.28 0 8 C-0.99 7.67 -1.98 7.34 -3 7 C-3 5.02 -3 3.04 -3 1 C-1 0 -1 0 0 0 Z " fill="#404043" transform="translate(136,241)"/>
<path d="M0 0 C0.99 0.99 1.98 1.98 3 3 C0.36 3.99 -2.28 4.98 -5 6 C-4.67 5.01 -4.34 4.02 -4 3 C-3.34 3 -2.68 3 -2 3 C-2 2.34 -2 1.68 -2 1 C-1.34 0.67 -0.68 0.34 0 0 Z " fill="#95B4D3" transform="translate(213,17)"/>
<path d="M0 0 C1.32 0.33 2.64 0.66 4 1 C4.33 2.32 4.66 3.64 5 5 C4.01 5.33 3.02 5.66 2 6 C1.34 4.02 0.68 2.04 0 0 Z " fill="#424245" transform="translate(155,238)"/>
<path d="M0 0 C2.64 0.33 5.28 0.66 8 1 C7.67 1.99 7.34 2.98 7 4 C4.69 3.67 2.38 3.34 0 3 C0 2.01 0 1.02 0 0 Z " fill="#8FCBEC" transform="translate(205,60)"/>
<path d="M0 0 C0.33 0 0.66 0 1 0 C0.67 2.64 0.34 5.28 0 8 C-1.32 8.33 -2.64 8.66 -4 9 C-1.125 2.25 -1.125 2.25 0 0 Z " fill="#2F6896" transform="translate(184,29)"/>
<path d="M0 0 C0.99 0.33 1.98 0.66 3 1 C4.1875 3.5625 4.1875 3.5625 5 6 C3.68 5.67 2.36 5.34 1 5 C0.67 3.35 0.34 1.7 0 0 Z " fill="#38393C" transform="translate(289,246)"/>
<path d="M0 0 C0.625 1.8125 0.625 1.8125 1 4 C0.01 5.485 0.01 5.485 -1 7 C-1.66 7 -2.32 7 -3 7 C-2.25 2.25 -2.25 2.25 0 0 Z " fill="#FDF1EC" transform="translate(157,192)"/>
<path d="M0 0 C3.7952131 1.49097658 5.61042731 3.75700849 8 7 C4.66272214 5.82744291 2.22562513 4.81131596 0 2 C0 1.34 0 0.68 0 0 Z " fill="#4C3756" transform="translate(187,72)"/>
<path d="M0 0 C0.66 0.66 1.32 1.32 2 2 C2.99 2.33 3.98 2.66 5 3 C2 5 2 5 -0.6875 4.625 C-1.450625 4.41875 -2.21375 4.2125 -3 4 C-2.01 2.68 -1.02 1.36 0 0 Z " fill="#4B88B0" transform="translate(191,22)"/>
<path d="M0 0 C2.35953094 2.35953094 2.49141413 3.77895617 3 7 C1.35 7 -0.3 7 -2 7 C-2 6.34 -2 5.68 -2 5 C-1.34 5 -0.68 5 0 5 C0 3.35 0 1.7 0 0 Z " fill="#A5A7CD" transform="translate(244,34)"/>
<path d="M0 0 C0.99 0 1.98 0 3 0 C4.42944945 2.35438733 5.08661261 3.48032433 4.625 6.25 C4.41875 6.8275 4.2125 7.405 4 8 C0 2.25 0 2.25 0 0 Z " fill="#0C5A98" transform="translate(224,37)"/>
</svg>
